<?xml version="1.0" encoding="UTF-8"?>
<svg id="uuid-eb65627d-8e04-4896-aa1e-df0ae8c02509" xmlns="http://www.w3.org/2000/svg" viewBox="0 0 106.63 151.58">
  <defs>
    <style>
      .cls-1 {
        fill: none;
        stroke: #160027;
        stroke-linecap: round;
        stroke-miterlimit: 10;
        stroke-width: 3.5px;
      }

      .cls-2 {
        fill: #160027;
      }
    </style>
  </defs>
  <g id="uuid-2518b88e-955a-4948-bea2-371aeaafb9dd">
    <path class="cls-2" d="M106.27,14.89C97.12,2.51,80.85-3.63,66.17,2.25c-11.76,4.71-20.5,15.03-24.06,27C35.36,12.76,20.86-1.75,1.88.22.86.32,0,.99,0,2.09c-.05,7.54,1.85,14.53,7.51,19.77,3.28,3.04,7.2,5.29,10.6,8.2,3.72,3.19,6.77,7,9.27,11.19-5.4,5.68-8.49,12.94-8.99,20.36-.1,1.51-.57,12.37,6.57,21.31,8.4,10.51,24.19,14.4,39.43,9.45.7-.86.81-2.03.29-2.9-.64-1.07-2.13-1.5-3.39-.87-1.25.3-3.01.66-5.13.87-.93.09-21.04,1.84-27.67-8.12-4.64-6.98-12.08-24.38,2.55-38.48.61-.58.7-1.56.29-2.27-3.97-7.08-9.38-12.56-15.92-17.3C8.07,17.97,4.17,12.69,3.78,3.83c18.79-.79,32.2,15.98,36.93,32.83.61,2.18,3.44,1.49,3.68-.5,1.59-12.99,10.34-24.94,22.4-30.12,10.53-4.52,22.34-1.99,30.84,5.05-6.63-2.03-13.93-2.81-20.21-.71-10.67,3.57-18.34,13.62-23.56,23.09-.55,1.01-.1,2.49,1.12,2.75,7.78,1.69,13.18,6.52,19.15,11.42,3.32,2.73,6.45,5.68,9.37,8.83,1.7,1.83,3.87,5.82,6.05,7.17,2.79,3.72,5.28,7.19,5.28,12.11,0,3.34-1.05,6.56-2.91,9.29.26.21.91.66,1.8.68,1.16.02,2.28-.7,2.89-1.85,1.36-3.01,1.73-4.99,1.84-6,.03-.24.05-.49.05-.49.07-.85.15-2.51-.18-4.47-.71-4.21-2.93-7.67-5.72-11.42-1.32-1.75-2.87-3.68-4.66-5.71-2.08-2.37-3.88-4.18-5-5.27-2.9-2.83-6-5.36-9.15-7.89-5-4-9.45-7.54-15.46-9.39,4.67-7.97,11.21-16.17,20.1-19.23,7.91-2.72,18.01-.07,25.28,3.46,1.5.73,3.79-.91,2.57-2.57h-.01Z"/>
    <path class="cls-2" d="M79.81,69.43c3.33,6.49,12.32,6.52,15.63,0,1.09-2.15-2.14-4.05-3.24-1.89-2.07,4.08-7.07,4.06-9.15,0-1.1-2.15-4.34-.25-3.24,1.89h0Z"/>
    <path class="cls-2" d="M89.17,89c.62.27,1.33-.25,2.97-1.35,2.2-1.49,2.4-1.55,2.97-2.13.84-.85,1.37-1.4,1.42-2.26.04-.7-.23-1.7-.97-2.13-1.21-.7-2.5.84-3.94.13-.47-.23-.74-.63-1.29-1.42-1.01-1.46-.97-2.36-1.42-2.45-.41-.09-1.09.52-2.32,3.23,1.36,2.74,2.54,4.22,3.42,5.1.24.24.84.81.71,1.35-.2.84-1.97,1.02-1.94,1.55.01.22.34.37.39.39h0Z"/>
    <path class="cls-2" d="M73.36,90.29c1.35,1.56,6.51.34,10.03-2.5,4.38-3.52,6.16-9.49,5.06-10.4-.31-.26-1.1-.33-1.68-.04-.48.24-.71.68-.78.84-.59,1.31-2.25,4.5-3.58,5.66-2.37,2.08-5.72-.58-8.22,1.8-.25.24-1.1,1.05-1.29,2.32-.1.65-.06,1.73.45,2.32h.01Z"/>
    <path class="cls-2" d="M84.97,73.06c1.82,3.54-.32,6.24,1.29,8,1.26,1.39,4.05,1.32,4.58.45.38-.63-.63-1.31-1.03-3.03-.72-3.07,1.6-4.71.71-6.26-1.04-1.8-5.47-1.77-6-.58-.18.4.14.81.45,1.42Z"/>
    <path class="cls-2" d="M31.94,41.3c4.34-13.82-3.78-26.23-11.61-37.06-1.4-1.94-4.66-.07-3.24,1.89,7.18,9.92,15.23,21.42,11.23,34.17-.72,2.31,2.89,3.3,3.62,1h0Z"/>
    <path class="cls-2" d="M44.33,36.65c3.57-1.28,7.36-1.39,11-.33,2.32.68,3.31-2.94,1-3.62-4.24-1.24-8.83-1.17-13,.33-2.25.81-1.28,4.43,1,3.62h0Z"/>
    <path class="cls-2" d="M34.04,151.54c1.47.04,3.51.07,5.94,0,4.86-.13,5.37-.47,5.68-.98,1.01-1.68-.88-4.31-3.1-12.04-1.44-5-2.15-7.51-2.32-10.74-.26-4.91.74-8.92,1.55-12.04,1.82-7.06,4.34-10,3.31-11.69-.37-.61-.97-.66-5.37-.68h-5.42l3.65-.07h-5.42c-4.4.02-5,.07-5.37.68-1.03,1.69,1.49,4.62,3.31,11.69.81,3.13,1.81,7.14,1.55,12.04-.17,3.24-.89,5.74-2.32,10.74-2.22,7.73-4.11,10.36-3.1,12.04.31.51.82.84,5.68.98,2.43.07,4.46.04,5.94,0"/>
    <path class="cls-2" d="M94.93,137.87c.26-2.15-3.34-3.12-9.22-8.35-4.15-3.68-6.65-7.01-7.38-8.01-1.51-2.06-4.03-5.56-5.82-10.58-2.46-6.92-1.26-10.45-3.68-11.57-2.18-1.02-5.13.89-8.21,2.89-3.06,1.99-5.83,3.79-5.79,6.06.05,2.53,3.63,2.89,9.2,7.93,2.4,2.17,5.44,4.96,7.93,9.2,1.64,2.8,2.42,5.28,3.98,10.24,2.55,8.12,2.11,11.12,4.05,11.76,1.58.52,2.48-1.23,8.89-5.23,4.56-2.84,5.9-3.07,6.05-4.35h0Z"/>
  </g>
  <path class="cls-1" d="M43.44,50.32s-1.04,12.32,8.38,12.32c4.18,0,5.94-3.57,6.79-12.32"/>
</svg>